# xmcd
#
# Track frame offsets: 
#        150
#        10650
#        23494
#        36713
#        48601
#        59608
#        72096
#        83900
#        94738
#        105688
#        117838
#        130438
#        143076
#        154308
#        165896
#        179059
#        191669
#        201419
#        213982
#        225382
#
# Disc length: 3143 seconds
#
# Revision: 0
# Processed by: cddbd v1.5.2PL0 Copyright (c) Steve Scherf et al.
# Submitted via: ExactAudioCopyFreeDBPlugin 1.0
#
DISCID=1c0c4514
DTITLE=Mary Wells - Bye Bye Baby
DYEAR=2005
DGENRE=Rhythmic Soul
TTITLE0=Come To Me
TTITLE1=I Don't Want To Take A Chance
TTITLE2=Bye, Bye Baby
TTITLE3=Shop Around
TTITLE4=I Love The Way You Love
TTITLE5=I'M Gonna Stay
TTITLE6=Let Your Conscience Be Your Guide
TTITLE7=Bad Boy
TTITLE8=I'm So Sorry
TTITLE9=Please Forgive Me
TTITLE10=I've Got A Story
TTITLE11=Strange Love
TTITLE12=The One Who Really Loves You
TTITLE13=She Don't Love You
TTITLE14=(You Can) Depend On Me
TTITLE15=Operator
TTITLE16=The Day Will Come
TTITLE17=You Beat Me To The Punch
TTITLE18=When Your Lover Comes Back
TTITLE19=Old Love (Let's Try It Again)
EXTD=
EXTT0=
EXTT1=
EXTT2=
EXTT3=
EXTT4=
EXTT5=
EXTT6=
EXTT7=
EXTT8=
EXTT9=
EXTT10=
EXTT11=
EXTT12=
EXTT13=
EXTT14=
EXTT15=
EXTT16=
EXTT17=
EXTT18=
EXTT19=
PLAYORDER=
